<svg width="565" height="369" viewBox="0 0 565 369" fill="none" xmlns="http://www.w3.org/2000/svg">
<path d="M557.159 149.638C557.159 179.047 532.823 203.12 502.514 203.12C472.204 203.12 447.869 179.047 447.869 149.638C447.869 120.23 472.204 96.1563 502.514 96.1563C532.823 96.1563 557.159 120.23 557.159 149.638Z" fill="#EF8A17"/>
<path d="M557.159 149.638C557.159 179.047 532.823 203.12 502.514 203.12C472.204 203.12 447.869 179.047 447.869 149.638C447.869 120.23 472.204 96.1563 502.514 96.1563C532.823 96.1563 557.159 120.23 557.159 149.638Z" stroke="#A63A50" stroke-width="14.4809"/>
<path d="M557.159 149.638C557.159 179.047 532.823 203.12 502.514 203.12C472.204 203.12 447.869 179.047 447.869 149.638C447.869 120.23 472.204 96.1563 502.514 96.1563C532.823 96.1563 557.159 120.23 557.159 149.638Z" stroke="#A63A50" stroke-width="14.4809"/>
<path d="M441.132 155.119C441.132 236.284 373.456 302.416 289.554 302.416C205.652 302.416 137.976 236.284 137.976 155.119C137.976 73.9548 205.652 7.82257 289.554 7.82257C373.456 7.82257 441.132 73.9548 441.132 155.119Z" fill="#A63A50" stroke="#EF8A17" stroke-width="14.4809"/>
<path d="M197.768 270.336C197.768 319.368 155.597 359.801 102.708 359.801C49.8186 359.801 7.64785 319.368 7.64785 270.336C7.64785 221.303 49.8186 180.87 102.708 180.87C155.597 180.87 197.768 221.303 197.768 270.336Z" fill="#A63A50" stroke="#EF8A17" stroke-width="14.4809"/>
<path d="M156.314 270.962C156.314 298.335 132.674 321.231 102.616 321.231C72.5591 321.231 48.9185 298.335 48.9185 270.962C48.9185 243.588 72.5591 220.692 102.616 220.692C132.674 220.692 156.314 243.588 156.314 270.962Z" fill="#6C493F" stroke="#EF8A17" stroke-width="14.4809"/>
<path d="M418.882 302.58C418.882 329.483 395.883 351.885 366.763 351.885C337.643 351.885 314.644 329.483 314.644 302.58C314.644 275.677 337.643 253.275 366.763 253.275C395.883 253.275 418.882 275.677 418.882 302.58Z" fill="white" stroke="#EF8A17" stroke-width="14.4809"/>
<path d="M458.421 221.502C458.421 236.963 446.136 249.281 431.245 249.281C416.355 249.281 404.07 236.963 404.07 221.502C404.07 206.04 416.355 193.722 431.245 193.722C446.136 193.722 458.421 206.04 458.421 221.502Z" fill="white" stroke="#6C493F" stroke-width="14.4809"/>
<path d="M184.363 38.4982C184.363 53.9596 172.078 66.2775 157.187 66.2775C142.297 66.2775 130.012 53.9596 130.012 38.4982C130.012 23.0368 142.297 10.7188 157.187 10.7188C172.078 10.7188 184.363 23.0368 184.363 38.4982Z" fill="white" stroke="#6C493F" stroke-width="14.4809"/>
<path d="M476.111 85.1724C476.111 99.8999 463.953 111.839 448.957 111.839C433.96 111.839 421.803 99.8999 421.803 85.1724C421.803 70.4449 433.96 58.5059 448.957 58.5059C463.953 58.5059 476.111 70.4449 476.111 85.1724Z" fill="#A63A50"/>
<path d="M353.839 341.485C353.839 352.17 345.109 360.911 334.242 360.911C323.374 360.911 314.644 352.17 314.644 341.485C314.644 330.8 323.374 322.059 334.242 322.059C345.109 322.059 353.839 330.8 353.839 341.485Z" fill="#EF8A17" stroke="#A63A50" stroke-width="14.4809"/>
<path d="M466.731 252.274C466.731 262.528 458.446 270.822 448.249 270.822C438.052 270.822 429.767 262.528 429.767 252.274C429.767 242.019 438.052 233.725 448.249 233.725C458.446 233.725 466.731 242.019 466.731 252.274Z" fill="#EF8A17" stroke="#A63A50" stroke-width="7.24047"/>
<path d="M119.151 104.483C119.151 123.723 102.776 139.599 82.2247 139.599C61.6733 139.599 45.2983 123.723 45.2983 104.483C45.2983 85.2427 61.6733 69.3666 82.2247 69.3666C102.776 69.3666 119.151 85.2427 119.151 104.483Z" fill="#EF8A17" stroke="#A63A50" stroke-width="7.24047"/>
<path d="M196.992 329.398C196.992 346.787 182.263 361.354 163.502 361.354C144.741 361.354 130.012 346.787 130.012 329.398C130.012 312.008 144.741 297.441 163.502 297.441C182.263 297.441 196.992 312.008 196.992 329.398Z" fill="#EF8A17" stroke="white" stroke-width="14.4809"/>
</svg>
