<svg width="603" height="153" viewBox="0 0 603 153" fill="none" xmlns="http://www.w3.org/2000/svg">
<g filter="url(#filter0_d_296_57)">
<rect x="249" y="60.3846" width="112.662" height="67.5455" rx="9.46742" fill="#EF8A17"/>
<rect x="263.978" y="69.0784" width="82.7058" height="49.4888" rx="9.46742" fill="white"/>
<path d="M269.65 127.93H290.678L273.603 141.305H265.281L269.65 127.93Z" fill="#6C493F"/>
<path d="M342.875 127.93H324.542L339.429 141.305H346.684L342.875 127.93Z" fill="#6C493F"/>
<path d="M288.725 60.3845C288.725 60.3845 284.348 60.3845 278.305 60.3845C272.263 60.3845 267.886 60.3845 267.886 60.3845C267.886 55.2136 272.263 51.0217 278.305 51.0217C284.348 51.0217 288.725 55.2136 288.725 60.3845Z" fill="#6C493F"/>
<line y1="-0.236685" x2="32.5876" y2="-0.236685" transform="matrix(0.599516 0.800363 -0.784701 0.619874 254.21 26.2773)" stroke="black" stroke-width="0.473371"/>
<line y1="-0.236685" x2="51.561" y2="-0.236685" transform="matrix(-0.0505209 -0.998723 0.99858 -0.0532715 280.91 51.4951)" stroke="black" stroke-width="0.473371"/>
</g>
<line y1="-2.5" x2="242.002" y2="-2.5" transform="matrix(0.999991 0.0041322 -0.00172089 0.999999 0 88)" stroke="#A63A50" stroke-width="5"/>
<line y1="-2.5" x2="242.002" y2="-2.5" transform="matrix(0.999991 0.0041322 -0.00172089 0.999999 0 97)" stroke="#A63A50" stroke-width="5"/>
<line y1="-2.5" x2="242.002" y2="-2.5" transform="matrix(0.999991 0.0041322 -0.00172089 0.999999 0 106)" stroke="#A63A50" stroke-width="5"/>
<line y1="-2.5" x2="234.002" y2="-2.5" transform="matrix(0.999991 0.00427346 -0.001664 0.999999 369 89)" stroke="#A63A50" stroke-width="5"/>
<line y1="-2.5" x2="234.002" y2="-2.5" transform="matrix(0.999991 0.00427346 -0.001664 0.999999 369 98)" stroke="#A63A50" stroke-width="5"/>
<line y1="-2.5" x2="234.002" y2="-2.5" transform="matrix(0.999991 0.00427346 -0.001664 0.999999 369 107)" stroke="#A63A50" stroke-width="5"/>
<defs>
<filter id="filter0_d_296_57" x="245" y="0" width="120.662" height="152.305" filterUnits="userSpaceOnUse" color-interpolation-filters="sRGB">
<feFlood flood-opacity="0" result="BackgroundImageFix"/>
<feColorMatrix in="SourceAlpha" type="matrix" values="0 0 0 0 0 0 0 0 0 0 0 0 0 0 0 0 0 0 127 0" result="hardAlpha"/>
<feOffset dy="7"/>
<feGaussianBlur stdDeviation="2"/>
<feComposite in2="hardAlpha" operator="out"/>
<feColorMatrix type="matrix" values="0 0 0 0 0 0 0 0 0 0 0 0 0 0 0 0 0 0 0.58 0"/>
<feBlend mode="normal" in2="BackgroundImageFix" result="effect1_dropShadow_296_57"/>
<feBlend mode="normal" in="SourceGraphic" in2="effect1_dropShadow_296_57" result="shape"/>
</filter>
</defs>
</svg>
